<?xml version="1.0" encoding="UTF-8" standalone="no"?>
<svg
   xmlns:dc="http://purl.org/dc/elements/1.1/"
   xmlns:cc="http://creativecommons.org/ns#"
   xmlns:rdf="http://www.w3.org/1999/02/22-rdf-syntax-ns#"
   xmlns:svg="http://www.w3.org/2000/svg"
   xmlns="http://www.w3.org/2000/svg"
   xmlns:sodipodi="http://sodipodi.sourceforge.net/DTD/sodipodi-0.dtd"
   xmlns:inkscape="http://www.inkscape.org/namespaces/inkscape"
   version="1.1"
   width="125.32289"
   height="124.96632"
   id="svg266"
   viewBox="0 0 125.32289 124.96632"
   sodipodi:docname="florb.svg"
   inkscape:version="1.0.2-2 (e86c870879, 2021-01-15)">
  <metadata
     id="metadata272">
    <rdf:RDF>
      <cc:Work
         rdf:about="">
        <dc:format>image/svg+xml</dc:format>
        <dc:type
           rdf:resource="http://purl.org/dc/dcmitype/StillImage" />
        <dc:title></dc:title>
      </cc:Work>
    </rdf:RDF>
  </metadata>
  <defs
     id="defs270" />
  <sodipodi:namedview
     pagecolor="#ffffff"
     bordercolor="#666666"
     borderopacity="1"
     objecttolerance="10"
     gridtolerance="10"
     guidetolerance="10"
     inkscape:pageopacity="0"
     inkscape:pageshadow="2"
     inkscape:window-width="1920"
     inkscape:window-height="1017"
     id="namedview268"
     showgrid="false"
     inkscape:zoom="0.25240834"
     inkscape:cx="1557.3938"
     inkscape:cy="-531.92296"
     inkscape:window-x="-8"
     inkscape:window-y="-8"
     inkscape:window-maximized="1"
     inkscape:current-layer="svg266"
     fit-margin-top="0"
     fit-margin-left="0"
     fit-margin-right="0"
     fit-margin-bottom="0" />
  <g
     id="Layer1010"
     transform="translate(1288.1958,-312.65573)">
    <path
       d="m -1194.6946,342.0479 c -2.4143,0.049 -5.6361,0.3634 -9.2679,1.4474 -2.908,0.8679 -5.2959,1.9953 -7.1246,3.0245 -0.038,-0.712 -0.1244,-1.7543 -0.3421,-2.9956 -0.4501,-2.5693 -1.1446,-6.5325 -4.1048,-9.7617 -0.62,-0.676 -2.7105,-2.899 -6.2448,-3.92 -5.6301,-1.6262 -10.3221,1.127 -11.2722,1.7161 -3.291,2.0409 -4.7841,4.8418 -5.1356,5.5366 -1.3969,2.7618 -1.4581,5.2571 -1.4737,6.4009 -0.11,8.193 6.1983,14.4193 8.358,16.5373 0.9493,0.9309 1.7592,1.6115 2.156,1.9372 -1.8581,2.2578 -3.7431,4.6503 -5.637,7.1805 -1.7056,2.2788 -3.3055,4.5187 -4.8056,6.7073 -0.3738,-0.2537 -0.9311,-0.6412 -1.5888,-1.137 -3e-4,0 -3.4577,-2.6056 -6.2144,-5.8274 -6.7405,-7.8778 -8.3814,-17.674 -8.3814,-17.6743 -0.254,-1.5143 -1.0954,-7.1447 0.4254,-13.868 0.4213,-1.8617 1.3272,-5.7171 3.9527,-10.0094 0.3892,-0.6361 0.7364,-1.1506 0.9876,-1.5123 1.6259,-2.3425 4.816,-6.2427 10.0275,-9.1851 1.0256,-0.5791 3.5901,-1.9513 7.1759,-2.9094 6.2158,-1.6611 11.3253,-0.9658 12.676,-0.756 10.5049,1.6302 16.8364,8.5192 18.5369,10.5142 1.0207,1.1974 3.1955,3.7905 4.7911,7.7125 1.4641,3.5995 1.9967,7.2267 2.3125,9.3793 0.089,0.6052 0.1519,1.1103 0.1933,1.4624 z"
       style="fill:#ffffff;fill-rule:evenodd"
       id="path106" />
    <path
       d="m -1221.8468,389.645 c 3.5768,-4.8379 7.0886,-9.5882 10.624,-14.3708 1.6982,1.59 3.395,2.9744 4.8396,4.585 2.1398,2.3854 3.6433,4.4811 4.4815,5.7581 2.8265,4.3052 4.2509,8.0841 4.771,9.557 0.7722,2.1858 1.9973,5.737 2.2816,10.5794 0.2251,3.839 -0.2494,6.7422 -0.3787,7.4917 -0.3478,2.0163 -1.2254,6.8108 -4.5334,11.6161 -4.1627,6.0474 -9.7679,8.6168 -12.674,9.9043 -8.2094,3.6377 -15.4148,2.8338 -16.8168,2.6586 -1.2819,-0.1602 -4.1009,-0.5429 -7.4209,-1.8958 -2.364,-0.9632 -4.6598,-2.0041 -6.6548,-3.5598 -1.8015,-1.4048 -3.4937,-2.9732 -5.0959,-4.6051 -3.2627,-3.3237 -4.7557,-6.8931 -5.567,-8.8195 -1.6696,-3.9659 -2.2183,-7.5192 -2.4023,-9.9422 2.063,0.2205 5.0006,0.3092 8.4302,-0.3396 3.5153,-0.665 6.2728,-1.8638 8.1309,-2.8466 0.2393,1.3604 0.4218,3.0022 0.832,4.5854 0.2123,0.8183 0.4822,1.6092 0.811,2.3745 0,0 0.8464,1.9786 2.0891,3.5626 1.4874,1.8958 5.076,5.0392 10.101,5.2254 3.2542,0.1208 5.6829,-1.0514 6.899,-1.6563 1.0465,-0.5204 3.1297,-1.5845 4.9481,-3.8701 0.5862,-0.7367 2.7425,-3.6085 2.9254,-7.8007 0.144,-3.2995 -0.9814,-5.6497 -2.3911,-8.416 -1.5471,-3.0359 -3.7247,-5.512 -6.0318,-7.9203 -0.6653,-0.6942 -1.474,-1.2512 -2.1977,-1.8553 z"
       style="fill:#ffffff;fill-rule:evenodd"
       id="path108" />
    <path
       d="m -1258.5674,344.2147 c -0.082,5.8947 1.0089,11.4891 3.303,16.581 -0.4567,-0.0343 -8.3985,-0.4879 -13.0156,5.9247 -3.8894,5.4022 -2.9506,12.2488 -0.3025,16.3805 1.8094,2.8231 4.3334,4.248 4.7138,4.4572 2.7921,1.535 5.4017,1.5855 6.6175,1.5945 8.8789,0.0666 16.0565,-7.8123 18.25,-10.2206 0.5153,-0.5655 0.2752,-0.3359 7.507,-9.974 3.4852,-4.6448 5.2276,-6.9669 5.3722,-7.1424 2.7383,-3.3197 10.2024,-12.1377 22.6148,-15.8582 1.7436,-0.5227 4.5198,-1.3356 8.2919,-1.5213 2.3108,-0.1134 10.6143,-0.4059 18.6452,4.8841 0.9255,0.6097 4.0731,2.7598 7.1112,6.586 3.2247,4.0612 4.6106,7.8508 4.9771,8.9053 1.8196,5.2334 1.6566,9.6021 1.5503,11.8622 -0.098,2.0758 -0.3135,5.953 -2.1799,10.5329 -0.5825,1.4301 -3.0149,7.0728 -8.9084,11.937 -4.875,4.0238 -9.726,5.5403 -11.7678,6.0823 -2.6906,0.7141 -5.0289,0.9374 -6.7138,0.9992 -0.6299,-5.8317 -2.0894,-11.4667 -4.578,-16.7553 2.1379,-0.3231 4.1145,-0.4535 5.9984,-0.9408 2.4789,-0.6412 5.5837,-1.6741 8.0856,-4.54 3.2071,-3.6734 3.2689,-8.0949 3.2677,-9.3549 0,-1.3714 0,-5.5082 -3.0353,-9.0269 -3.8015,-4.4135 -9.4377,-4.4532 -11.1676,-4.367 -2.992,0.1485 -5.1194,1.2112 -7.1422,2.2487 -4.9689,2.5483 -8.047,5.9805 -10.7521,9.2276 -5.5055,6.6081 -8.0918,10.8003 -10.3261,13.8016 -2.211,2.9699 -13.339,17.917 -30.2496,19.5562 -10.0091,0.9706 -17.96,-3.1169 -19.4933,-3.9353 -5.5837,-2.9801 -8.7735,-6.7482 -9.4187,-7.5268 -1.1406,-1.3771 -3.7176,-4.7433 -5.3764,-9.8045 -0.6265,-1.9117 -1.7887,-6.0996 -1.4443,-11.5141 0.1381,-2.1699 0.6165,-6.0854 2.569,-10.5332 2.7213,-6.1991 6.7462,-9.8802 8.3373,-11.2247 1.2733,-1.0763 4.8957,-3.958 10.4431,-5.7781 3.278,-1.0755 6.1614,-1.4304 8.2165,-1.5429 z"
       style="fill:#ffffff;fill-rule:evenodd"
       id="path110" />
  </g>
</svg>
