<?xml version="1.0" encoding="UTF-8" standalone="no"?>
<svg
   xmlns:dc="http://purl.org/dc/elements/1.1/"
   xmlns:cc="http://creativecommons.org/ns#"
   xmlns:rdf="http://www.w3.org/1999/02/22-rdf-syntax-ns#"
   xmlns:svg="http://www.w3.org/2000/svg"
   xmlns="http://www.w3.org/2000/svg"
   xmlns:sodipodi="http://sodipodi.sourceforge.net/DTD/sodipodi-0.dtd"
   xmlns:inkscape="http://www.inkscape.org/namespaces/inkscape"
   version="1.1"
   width="16"
   height="15.999999"
   id="svg266"
   viewBox="0 0 16 16"
   sodipodi:docname="florfundoico.svg"
   inkscape:version="1.0.2-2 (e86c870879, 2021-01-15)">
  <metadata
     id="metadata272">
    <rdf:RDF>
      <cc:Work
         rdf:about="">
        <dc:format>image/svg+xml</dc:format>
        <dc:type
           rdf:resource="http://purl.org/dc/dcmitype/StillImage" />
        <dc:title />
      </cc:Work>
    </rdf:RDF>
  </metadata>
  <defs
     id="defs270" />
  <sodipodi:namedview
     pagecolor="#ffffff"
     bordercolor="#666666"
     borderopacity="1"
     objecttolerance="10"
     gridtolerance="10"
     guidetolerance="10"
     inkscape:pageopacity="0"
     inkscape:pageshadow="2"
     inkscape:window-width="1920"
     inkscape:window-height="1017"
     id="namedview268"
     showgrid="false"
     inkscape:zoom="16.154134"
     inkscape:cx="1.9644867"
     inkscape:cy="14.178035"
     inkscape:window-x="-8"
     inkscape:window-y="-8"
     inkscape:window-maximized="1"
     inkscape:current-layer="svg266"
     fit-margin-top="0"
     fit-margin-left="0"
     fit-margin-right="0"
     fit-margin-bottom="0"
     inkscape:pagecheckerboard="false"
     inkscape:document-rotation="0" />
  <circle
     style="fill:#ffffff;stroke-width:1.36813"
     id="path840"
     cx="8"
     cy="7.9996915"
     r="8.000001" />
  <g
     id="Layer1003"
     transform="matrix(0.12767021,0,0,0.12803451,221.30259,-40.030735)">
    <path
       d="m -1639.8916,342.0479 c -2.4142,0.049 -5.6358,0.3634 -9.2678,1.4477 -2.9081,0.8676 -5.2957,1.995 -7.1243,3.0242 -0.038,-0.7117 -0.1245,-1.7543 -0.3422,-2.9956 -0.4504,-2.5691 -1.1449,-6.5322 -4.1048,-9.7614 -0.62,-0.6763 -2.7108,-2.8993 -6.245,-3.92 -5.6299,-1.6263 -10.3221,1.127 -11.272,1.7161 -3.2913,2.0406 -4.784,4.8415 -5.1355,5.5363 -1.3972,2.7618 -1.4585,5.2574 -1.4738,6.4009 -0.1102,8.193 6.198,14.4196 8.358,16.5376 0.9493,0.9309 1.7592,1.6115 2.156,1.9372 -1.8581,2.2578 -3.7434,4.6503 -5.637,7.1805 -1.7056,2.2787 -3.3054,4.5184 -4.8055,6.707 -0.3739,-0.2537 -0.9315,-0.6412 -1.5891,-1.1367 0,-3e-4 -3.4575,-2.6059 -6.2142,-5.8274 -6.7405,-7.8781 -8.3817,-17.674 -8.3817,-17.6743 -0.2537,-1.5146 -1.095,-7.1448 0.4255,-13.8683 0.4212,-1.8617 1.3271,-5.7169 3.9529,-10.0091 0.3889,-0.6364 0.7364,-1.1506 0.9873,-1.5126 1.6262,-2.3425 4.816,-6.2424 10.0278,-9.1851 1.0253,-0.5788 3.5901,-1.951 7.1759,-2.9092 6.2158,-1.6611 11.325,-0.966 12.676,-0.7562 10.5049,1.6302 16.8364,8.5195 18.5366,10.5142 1.021,1.1974 3.1955,3.7905 4.7911,7.7125 1.4644,3.5998 1.9967,7.2267 2.3128,9.3796 0.089,0.6049 0.1517,1.1103 0.193,1.4621 z"
       style="fill:#f07d28;fill-rule:evenodd"
       id="path41" />
    <path
       d="m -1667.0435,389.6453 c 3.5765,-4.8382 7.0886,-9.5885 10.624,-14.3708 1.6982,1.5899 3.3947,2.9744 4.8396,4.585 2.1396,2.3854 3.643,4.481 4.4815,5.758 2.8265,4.305 4.2509,8.0839 4.771,9.5568 0.7719,2.186 1.997,5.737 2.2814,10.5797 0.2253,3.8387 -0.2492,6.7419 -0.3785,7.4914 -0.3478,2.0166 -1.2257,6.8108 -4.5334,11.6161 -4.1627,6.0474 -9.7679,8.6168 -12.674,9.9045 -8.2094,3.6375 -15.4148,2.8336 -16.8171,2.6587 -1.2818,-0.1602 -4.1006,-0.5432 -7.4205,-1.8958 -2.3641,-0.9635 -4.6599,-2.0041 -6.6549,-3.5598 -1.8017,-1.4048 -3.4937,-2.9733 -5.0959,-4.6052 -3.2629,-3.3236 -4.756,-6.893 -5.5669,-8.8197 -1.6697,-3.9659 -2.2184,-7.5189 -2.4027,-9.9419 2.0633,0.2202 5.0009,0.3092 8.4305,-0.3396 3.5153,-0.665 6.2725,-1.8641 8.1309,-2.8469 0.239,1.3604 0.4215,3.0025 0.832,4.5854 0.2123,0.8186 0.4822,1.6092 0.811,2.3745 0,3e-4 0.8464,1.9786 2.0888,3.5626 1.4874,1.8961 5.076,5.0392 10.101,5.2257 3.2542,0.1208 5.6829,-1.0514 6.899,-1.6563 1.0465,-0.5204 3.13,-1.5848 4.9484,-3.8704 0.5859,-0.7364 2.7423,-3.6085 2.9251,-7.8004 0.144,-3.2995 -0.9811,-5.6497 -2.391,-8.416 -1.5469,-3.0362 -3.7245,-5.5123 -6.0316,-7.9203 -0.6653,-0.6942 -1.474,-1.2512 -2.1977,-1.8553 z"
       style="fill:#40304c;fill-rule:evenodd"
       id="path43" />
    <path
       d="m -1703.7643,344.2147 c -0.082,5.8949 1.0091,11.4891 3.3032,16.581 -0.4567,-0.034 -8.3985,-0.4879 -13.0156,5.925 -3.8894,5.4019 -2.9509,12.2485 -0.3027,16.3802 1.8096,2.8234 4.3333,4.248 4.714,4.4572 2.7918,1.535 5.4014,1.5857 6.6175,1.5948 8.8786,0.0666 16.0562,-7.8126 18.25,-10.2209 0.5153,-0.5655 0.2752,-0.3356 7.507,-9.974 3.4849,-4.6445 5.2276,-6.9669 5.3722,-7.1421 2.7383,-3.3197 10.2024,-12.1377 22.6148,-15.8585 1.7436,-0.5227 4.5196,-1.3354 8.2919,-1.521 2.3108,-0.1137 10.614,-0.4059 18.6449,4.8841 0.9258,0.6097 4.0734,2.7595 7.1113,6.5857 3.2247,4.0615 4.6105,7.8511 4.9773,8.9053 1.8196,5.2336 1.6566,9.6024 1.5503,11.8625 -0.097,2.0758 -0.3135,5.953 -2.1799,10.5329 -0.5828,1.4301 -3.0152,7.0728 -8.9084,11.937 -4.875,4.0238 -9.726,5.54 -11.7678,6.082 -2.6909,0.7144 -5.0289,0.9377 -6.7141,0.9992 -0.6296,-5.8317 -2.0894,-11.4667 -4.5777,-16.7553 2.1379,-0.3231 4.1142,-0.4532 5.9984,-0.9405 2.4786,-0.6412 5.5837,-1.6744 8.0856,-4.54 3.2071,-3.6737 3.2689,-8.0949 3.2678,-9.3552 0,-1.3711 0,-5.5082 -3.0354,-9.0266 -3.8018,-4.4138 -9.4379,-4.4535 -11.1679,-4.3673 -2.992,0.1488 -5.1191,1.2115 -7.1419,2.249 -4.9691,2.5483 -8.0473,5.9805 -10.7521,9.2273 -5.5055,6.6084 -8.0918,10.8003 -10.3263,13.8016 -2.2111,2.9702 -13.3387,17.917 -30.2494,19.5565 -10.0091,0.9703 -17.96,-3.1172 -19.4936,-3.9356 -5.5837,-2.9801 -8.7732,-6.7482 -9.4184,-7.5268 -1.1406,-1.3768 -3.7176,-4.7433 -5.3764,-9.8042 -0.6265,-1.9117 -1.7887,-6.0999 -1.4443,-11.5141 0.1381,-2.1702 0.6166,-6.0857 2.5691,-10.5335 2.7212,-6.1988 6.7461,-9.8802 8.3369,-11.2247 1.2734,-1.076 4.896,-3.958 10.4434,-5.7781 3.278,-1.0755 6.1614,-1.4304 8.2163,-1.5429 z"
       style="fill:#40304c;fill-rule:evenodd"
       id="path45" />
  </g>
</svg>
