<?xml version="1.0" encoding="UTF-8" standalone="no"?>
<svg
   xmlns:dc="http://purl.org/dc/elements/1.1/"
   xmlns:cc="http://creativecommons.org/ns#"
   xmlns:rdf="http://www.w3.org/1999/02/22-rdf-syntax-ns#"
   xmlns:svg="http://www.w3.org/2000/svg"
   xmlns="http://www.w3.org/2000/svg"
   xmlns:sodipodi="http://sodipodi.sourceforge.net/DTD/sodipodi-0.dtd"
   xmlns:inkscape="http://www.inkscape.org/namespaces/inkscape"
   version="1.1"
   width="245.084"
   height="32.723701"
   id="svg266"
   viewBox="0 0 245.084 32.723701"
   sodipodi:docname="spilatesb.svg"
   inkscape:version="1.0.2-2 (e86c870879, 2021-01-15)">
  <metadata
     id="metadata272">
    <rdf:RDF>
      <cc:Work
         rdf:about="">
        <dc:format>image/svg+xml</dc:format>
        <dc:type
           rdf:resource="http://purl.org/dc/dcmitype/StillImage" />
        <dc:title></dc:title>
      </cc:Work>
    </rdf:RDF>
  </metadata>
  <defs
     id="defs270" />
  <sodipodi:namedview
     pagecolor="#ffffff"
     bordercolor="#666666"
     borderopacity="1"
     objecttolerance="10"
     gridtolerance="10"
     guidetolerance="10"
     inkscape:pageopacity="0"
     inkscape:pageshadow="2"
     inkscape:window-width="1920"
     inkscape:window-height="1017"
     id="namedview268"
     showgrid="false"
     inkscape:zoom="0.3569593"
     inkscape:cx="823.57104"
     inkscape:cy="151.62722"
     inkscape:window-x="-8"
     inkscape:window-y="-8"
     inkscape:window-maximized="1"
     inkscape:current-layer="svg266"
     fit-margin-top="0"
     fit-margin-left="0"
     fit-margin-right="0"
     fit-margin-bottom="0" />
  <g
     id="Layer1011"
     transform="translate(1349.202,-472.4983)">
    <g
       id="Layer1012">
      <path
         d="m -1289.5106,498.2094 v 7.0126 h -7.0127 v -32.7237 h 15.1934 c 3.5527,0 6.5841,1.254 9.0927,3.7627 2.509,2.509 3.7627,5.54 3.7627,9.093 0,3.5526 -1.2537,6.584 -3.7627,9.0927 -2.5086,2.5086 -5.54,3.7627 -9.0927,3.7627 z m 0,-18.6993 v 0 11.6875 h 8.1807 c 1.6203,0 2.9999,-0.5692 4.1378,-1.7059 1.1367,-1.1378 1.7059,-2.5166 1.7059,-4.1377 0,-1.6203 -0.5692,-2.9999 -1.7059,-4.1377 -1.1379,-1.1367 -2.5175,-1.7062 -4.1378,-1.7062 z"
         style="fill:#ffffff;fill-rule:evenodd"
         id="path113" />
      <path
         d="m -1258.7009,472.4983 v 32.7237 h -7.0126 v -32.7237 z"
         style="fill:#ffffff;fill-rule:evenodd"
         id="path115" />
      <path
         d="m -1255.9411,472.4983 h 7.0127 v 25.7111 h 21.0359 v 7.0126 h -28.0486 z"
         style="fill:#ffffff;fill-rule:evenodd"
         id="path117" />
      <path
         d="m -1218.1198,498.2094 v 7.0126 h -7.0129 v -18.6993 c 0,-3.8806 1.3674,-7.1872 4.1026,-9.9227 2.7343,-2.7343 6.042,-4.1017 9.9218,-4.1017 3.88,0 7.1875,1.3674 9.9229,4.1017 2.7346,2.7355 4.1015,6.0421 4.1015,9.9227 v 18.6993 h -7.0115 v -7.0126 z m 14.0244,-7.0118 v 0 -4.6749 c 0,-1.9324 -0.6866,-3.5838 -2.0568,-4.9558 -1.372,-1.3711 -3.0235,-2.0568 -4.9561,-2.0568 -1.9324,0 -3.5839,0.6857 -4.955,2.0568 -1.3711,1.372 -2.0565,3.0234 -2.0565,4.9558 v 4.6749 z"
         style="fill:#ffffff;fill-rule:evenodd"
         id="path119" />
      <path
         d="m -1165.7361,472.4983 v 7.0118 h -11.6876 v 25.7119 h -7.0117 v -25.7119 h -11.6873 v -7.0118 z"
         style="fill:#ffffff;fill-rule:evenodd"
         id="path121" />
      <path
         d="m -1134.9275,472.4983 v 7.0118 h -21.0362 v 5.8439 h 16.3613 v 7.0126 h -16.3613 v 5.8428 h 21.0362 v 7.0126 h -28.0488 v -32.7237 z"
         style="fill:#ffffff;fill-rule:evenodd"
         id="path123" />
      <path
         d="m -1113.4675,505.222 h -18.6993 v -7.0126 h 18.6993 c 0.6386,0 1.1883,-0.2293 1.6483,-0.6894 0.4592,-0.4589 0.6894,-1.0089 0.6894,-1.6475 0,-0.6386 -0.2302,-1.1886 -0.6894,-1.6483 -0.46,-0.4593 -1.0097,-0.6897 -1.6483,-0.6897 h -8.1808 c -2.8984,0 -5.3759,-1.0281 -7.4336,-3.085 -2.0565,-2.0565 -3.0849,-4.5351 -3.0849,-7.4335 0,-2.8985 1.0284,-5.3759 3.0849,-7.4325 2.0577,-2.0568 4.5352,-3.0852 7.4336,-3.0852 h 17.5303 v 7.0118 h -17.5303 c -0.9666,0 -1.7918,0.343 -2.4775,1.0284 -0.6865,0.6865 -1.0284,1.5117 -1.0284,2.4775 0,0.9669 0.3419,1.7932 1.0284,2.4786 0.6857,0.6854 1.5109,1.0281 2.4775,1.0281 h 8.1808 c 2.5869,0 4.7919,0.9113 6.6152,2.7346 1.8232,1.8232 2.7343,4.0283 2.7343,6.6152 0,2.5869 -0.9111,4.792 -2.7343,6.6152 -1.8233,1.8233 -4.0283,2.7343 -6.6152,2.7343 z"
         style="fill:#ffffff;fill-rule:evenodd"
         id="path125" />
    </g>
    <g
       id="Layer1013">
      <path
         d="m -1330.5027,505.222 h -18.6993 v -7.0126 h 18.6993 c 0.6386,0 1.1885,-0.2293 1.6483,-0.6894 0.4592,-0.4589 0.6897,-1.0089 0.6897,-1.6475 0,-0.6386 -0.2305,-1.1886 -0.6897,-1.6483 -0.4598,-0.4593 -1.0097,-0.6897 -1.6483,-0.6897 h -8.1808 c -2.8982,0 -5.3759,-1.0281 -7.4336,-3.085 -2.0565,-2.0565 -3.0849,-4.5351 -3.0849,-7.4335 0,-2.8985 1.0284,-5.3759 3.0849,-7.4325 2.0577,-2.0568 4.5354,-3.0852 7.4336,-3.0852 h 17.5303 v 7.0118 h -17.5303 c -0.9666,0 -1.7918,0.343 -2.4775,1.0284 -0.6863,0.6865 -1.0281,1.5117 -1.0281,2.4775 0,0.9669 0.3418,1.7932 1.0281,2.4786 0.6857,0.6854 1.5109,1.0281 2.4775,1.0281 h 8.1808 c 2.5869,0 4.7919,0.9113 6.6152,2.7346 1.8232,1.8232 2.7343,4.0283 2.7343,6.6152 0,2.5869 -0.9111,4.792 -2.7343,6.6152 -1.8233,1.8233 -4.0283,2.7343 -6.6152,2.7343 z"
         style="fill:#ffffff;fill-rule:evenodd"
         id="path128" />
    </g>
    <path
       d="m -1303.259,490.1026 h -11.2424 v -5.7818 h 11.2424 z"
       style="fill:#ffffff;fill-rule:evenodd"
       id="path131" />
  </g>
</svg>
