<?xml version="1.0" encoding="UTF-8" standalone="no"?>
<svg
   xmlns:dc="http://purl.org/dc/elements/1.1/"
   xmlns:cc="http://creativecommons.org/ns#"
   xmlns:rdf="http://www.w3.org/1999/02/22-rdf-syntax-ns#"
   xmlns:svg="http://www.w3.org/2000/svg"
   xmlns="http://www.w3.org/2000/svg"
   xmlns:sodipodi="http://sodipodi.sourceforge.net/DTD/sodipodi-0.dtd"
   xmlns:inkscape="http://www.inkscape.org/namespaces/inkscape"
   version="1.1"
   width="245.084"
   height="32.723701"
   id="svg266"
   viewBox="0 0 245.084 32.723701"
   sodipodi:docname="spilatesbl.svg"
   inkscape:version="1.0.2-2 (e86c870879, 2021-01-15)">
  <metadata
     id="metadata272">
    <rdf:RDF>
      <cc:Work
         rdf:about="">
        <dc:format>image/svg+xml</dc:format>
        <dc:type
           rdf:resource="http://purl.org/dc/dcmitype/StillImage" />
        <dc:title></dc:title>
      </cc:Work>
    </rdf:RDF>
  </metadata>
  <defs
     id="defs270" />
  <sodipodi:namedview
     pagecolor="#ffffff"
     bordercolor="#666666"
     borderopacity="1"
     objecttolerance="10"
     gridtolerance="10"
     guidetolerance="10"
     inkscape:pageopacity="0"
     inkscape:pageshadow="2"
     inkscape:window-width="1920"
     inkscape:window-height="1017"
     id="namedview268"
     showgrid="false"
     inkscape:zoom="1.0096334"
     inkscape:cx="608.14155"
     inkscape:cy="-51.553415"
     inkscape:window-x="-8"
     inkscape:window-y="-8"
     inkscape:window-maximized="1"
     inkscape:current-layer="svg266"
     fit-margin-top="0"
     fit-margin-left="0"
     fit-margin-right="0"
     fit-margin-bottom="0" />
  <g
     id="g1170"
     transform="translate(1794.3993,-472.4983)">
    <g
       id="Layer1005"
       style="fill:#ffffff">
      <path
         d="m -1734.7079,498.2094 v 7.0126 h -7.0126 v -32.7237 h 15.1934 c 3.5526,0 6.584,1.254 9.0927,3.7627 2.5089,2.509 3.7627,5.54 3.7627,9.093 0,3.5526 -1.2538,6.584 -3.7627,9.0927 -2.5087,2.5086 -5.5401,3.7627 -9.0927,3.7627 z m 0,-18.6993 v 0 11.6875 h 8.1808 c 1.62,0 2.9999,-0.5692 4.1377,-1.7059 1.1367,-1.1378 1.7059,-2.5166 1.7059,-4.1377 0,-1.6203 -0.5692,-2.9999 -1.7059,-4.1377 -1.1378,-1.1367 -2.5177,-1.7062 -4.1377,-1.7062 z"
         style="fill:#ffffff;fill-rule:evenodd"
         id="path48" />
      <path
         d="m -1703.8981,472.4983 v 32.7237 h -7.0127 v -32.7237 z"
         style="fill:#ffffff;fill-rule:evenodd"
         id="path50" />
      <path
         d="m -1701.1383,472.4983 h 7.0126 v 25.7111 h 21.0362 v 7.0126 h -28.0488 z"
         style="fill:#ffffff;fill-rule:evenodd"
         id="path52" />
      <path
         d="m -1663.3171,498.2094 v 7.0126 h -7.0129 v -18.6993 c 0,-3.8806 1.3672,-7.1872 4.1026,-9.9227 2.7346,-2.7343 6.042,-4.1017 9.9221,-4.1017 3.8798,0 7.1873,1.3674 9.9227,4.1017 2.7343,2.7355 4.1017,6.0421 4.1017,9.9227 v 18.6993 h -7.0118 v -7.0126 z m 14.0244,-7.0118 v 0 -4.6749 c 0,-1.9324 -0.6865,-3.5838 -2.0568,-4.9558 -1.3719,-1.3711 -3.0234,-2.0568 -4.9558,-2.0568 -1.9329,0 -3.5841,0.6857 -4.9552,2.0568 -1.3712,1.372 -2.0566,3.0234 -2.0566,4.9558 v 4.6749 z"
         style="fill:#ffffff;fill-rule:evenodd"
         id="path54" />
      <path
         d="m -1610.9334,472.4983 v 7.0118 h -11.6875 v 25.7119 h -7.0118 v -25.7119 h -11.6875 v -7.0118 z"
         style="fill:#ffffff;fill-rule:evenodd"
         id="path56" />
      <path
         d="m -1580.1248,472.4983 v 7.0118 h -21.0361 v 5.8439 h 16.3612 v 7.0126 h -16.3612 v 5.8428 h 21.0361 v 7.0126 h -28.0488 v -32.7237 z"
         style="fill:#ffffff;fill-rule:evenodd"
         id="path58" />
      <path
         d="m -1558.6648,505.222 h -18.6993 v -7.0126 h 18.6993 c 0.6387,0 1.1886,-0.2293 1.6484,-0.6894 0.4589,-0.4589 0.6896,-1.0089 0.6896,-1.6475 0,-0.6386 -0.2307,-1.1886 -0.6896,-1.6483 -0.4598,-0.4593 -1.0097,-0.6897 -1.6484,-0.6897 h -8.1808 c -2.8984,0 -5.3759,-1.0281 -7.4335,-3.085 -2.0566,-2.0565 -3.085,-4.5351 -3.085,-7.4335 0,-2.8985 1.0284,-5.3759 3.085,-7.4325 2.0576,-2.0568 4.5351,-3.0852 7.4335,-3.0852 h 17.5303 v 7.0118 h -17.5303 c -0.9666,0 -1.792,0.343 -2.4775,1.0284 -0.6865,0.6865 -1.0281,1.5117 -1.0281,2.4775 0,0.9669 0.3416,1.7932 1.0281,2.4786 0.6855,0.6854 1.5109,1.0281 2.4775,1.0281 h 8.1808 c 2.5869,0 4.792,0.9113 6.6152,2.7346 1.8233,1.8232 2.7343,4.0283 2.7343,6.6152 0,2.5869 -0.911,4.792 -2.7343,6.6152 -1.8232,1.8233 -4.0283,2.7343 -6.6152,2.7343 z"
         style="fill:#ffffff;fill-rule:evenodd"
         id="path60" />
    </g>
    <g
       id="Layer1006">
      <path
         d="m -1775.7,505.222 h -18.6993 v -7.0126 h 18.6993 c 0.6386,0 1.1886,-0.2293 1.6486,-0.6894 0.459,-0.4589 0.6894,-1.0089 0.6894,-1.6475 0,-0.6386 -0.2304,-1.1886 -0.6894,-1.6483 -0.46,-0.4593 -1.01,-0.6897 -1.6486,-0.6897 h -8.1805 c -2.8987,0 -5.3762,-1.0281 -7.4336,-3.085 -2.0568,-2.0565 -3.0852,-4.5351 -3.0852,-7.4335 0,-2.8985 1.0284,-5.3759 3.0852,-7.4325 2.0574,-2.0568 4.5349,-3.0852 7.4336,-3.0852 h 17.53 v 7.0118 h -17.53 c -0.9669,0 -1.7921,0.343 -2.4778,1.0284 -0.6865,0.6865 -1.0281,1.5117 -1.0281,2.4775 0,0.9669 0.3416,1.7932 1.0281,2.4786 0.6857,0.6854 1.5109,1.0281 2.4778,1.0281 h 8.1805 c 2.5869,0 4.792,0.9113 6.6152,2.7346 1.8233,1.8232 2.7343,4.0283 2.7343,6.6152 0,2.5869 -0.911,4.792 -2.7343,6.6152 -1.8232,1.8233 -4.0283,2.7343 -6.6152,2.7343 z"
         style="fill:#f07d28;fill-rule:evenodd"
         id="path63" />
    </g>
    <path
       d="m -1748.4557,490.1026 h -11.2427 v -5.7818 h 11.2427 z"
       style="fill:#f07d28;fill-rule:evenodd"
       id="path66" />
  </g>
</svg>
