<?xml version="1.0" encoding="UTF-8" standalone="no"?>
<svg
   xmlns:dc="http://purl.org/dc/elements/1.1/"
   xmlns:cc="http://creativecommons.org/ns#"
   xmlns:rdf="http://www.w3.org/1999/02/22-rdf-syntax-ns#"
   xmlns:svg="http://www.w3.org/2000/svg"
   xmlns="http://www.w3.org/2000/svg"
   xmlns:sodipodi="http://sodipodi.sourceforge.net/DTD/sodipodi-0.dtd"
   xmlns:inkscape="http://www.inkscape.org/namespaces/inkscape"
   version="1.1"
   width="245.084"
   height="213.11708"
   id="svg266"
   viewBox="0 0 245.084 213.11708"
   sodipodi:docname="spilaterslogo.svg"
   inkscape:version="1.0.2-2 (e86c870879, 2021-01-15)">
  <metadata
     id="metadata272">
    <rdf:RDF>
      <cc:Work
         rdf:about="">
        <dc:format>image/svg+xml</dc:format>
        <dc:type
           rdf:resource="http://purl.org/dc/dcmitype/StillImage" />
        <dc:title></dc:title>
      </cc:Work>
    </rdf:RDF>
  </metadata>
  <defs
     id="defs270" />
  <sodipodi:namedview
     pagecolor="#ffffff"
     bordercolor="#666666"
     borderopacity="1"
     objecttolerance="10"
     gridtolerance="10"
     guidetolerance="10"
     inkscape:pageopacity="0"
     inkscape:pageshadow="2"
     inkscape:window-width="1920"
     inkscape:window-height="1017"
     id="namedview268"
     showgrid="false"
     inkscape:zoom="0.17847965"
     inkscape:cx="-8.6452232"
     inkscape:cy="93.404181"
     inkscape:window-x="-8"
     inkscape:window-y="-8"
     inkscape:window-maximized="1"
     inkscape:current-layer="svg266"
     fit-margin-top="0"
     fit-margin-left="0"
     fit-margin-right="0"
     fit-margin-bottom="0" />
  <g
     id="Layer1000"
     transform="translate(1794.3993,-312.65582)">
    <g
       id="Layer1001">
      <path
         d="m -1784.5466,519.139 c 0,-0.6854 -0.2433,-1.2713 -0.7294,-1.7578 -0.4864,-0.4864 -1.0723,-0.7293 -1.758,-0.7293 -0.6855,0 -1.2714,0.2429 -1.7578,0.7293 -0.4873,0.4865 -0.7305,1.0724 -0.7305,1.7578 v 6.6339 h -2.4871 v -6.6339 c 0,-1.3759 0.4853,-2.5498 1.455,-3.5195 0.9706,-0.9706 2.1436,-1.4559 3.5204,-1.4559 1.3759,0 2.5509,0.4842 3.5234,1.4511 0.072,0.0779 0.1417,0.1525 0.2081,0.2245 0.066,-0.072 0.1377,-0.1466 0.2148,-0.2245 0.9678,-0.9669 2.1396,-1.4511 3.5167,-1.4511 1.3759,0 2.5498,0.4853 3.5195,1.4559 0.9706,0.9697 1.455,2.1436 1.455,3.5195 v 6.6339 h -2.4874 v -6.6339 c 0,-0.6854 -0.2429,-1.2713 -0.7293,-1.7578 -0.4865,-0.4864 -1.0724,-0.7293 -1.7578,-0.7293 -0.6857,0 -1.2716,0.2429 -1.758,0.7293 -0.4873,0.4865 -0.7302,1.0724 -0.7302,1.7578 v 6.6339 h -2.4874 z"
         style="fill:#40304c;fill-rule:evenodd"
         id="path6" />
      <path
         d="m -1766.5447,514.1636 v 11.6093 h -2.4874 v -11.6093 z"
         style="fill:#40304c;fill-rule:evenodd"
         id="path8" />
      <path
         d="m -1752.3054,521.6428 2.1552,1.2609 c -0.248,0.415 -0.5547,0.8047 -0.9198,1.169 -1.1339,1.1339 -2.5019,1.7002 -4.1046,1.7002 -1.6036,0 -2.9716,-0.5663 -4.1046,-1.7002 -1.1338,-1.1327 -1.7002,-2.501 -1.7002,-4.1046 0,-1.6024 0.5664,-2.9707 1.7002,-4.1045 1.133,-1.1328 2.501,-1.7 4.1046,-1.7 1.6027,0 2.9707,0.5672 4.1046,1.7 0.3651,0.3653 0.6718,0.7548 0.9198,1.169 l -2.1552,1.2608 c -0.1386,-0.2372 -0.3126,-0.462 -0.5224,-0.6718 -0.6466,-0.6466 -1.4298,-0.9697 -2.3468,-0.9697 -0.9179,0 -1.7002,0.3231 -2.3468,0.9697 -0.6463,0.6463 -0.9706,1.4295 -0.9706,2.3465 0,0.9182 0.3243,1.7002 0.9706,2.3468 0.6466,0.6463 1.4289,0.9706 2.3468,0.9706 0.917,0 1.7002,-0.3243 2.3468,-0.9706 0.2098,-0.21 0.3838,-0.4337 0.5224,-0.6721 z"
         style="fill:#40304c;fill-rule:evenodd"
         id="path10" />
      <path
         d="m -1739.3202,523.2855 h -2.8281 v 2.4874 h -2.4871 v -11.6093 h 5.3895 c 1.2609,0 2.336,0.4453 3.2256,1.3349 0.8906,0.8906 1.3351,1.9658 1.3351,3.2266 0,1.2598 -0.4445,2.3349 -1.3351,3.2256 -0.2597,0.2596 -0.5332,0.4804 -0.8204,0.663 l 1.8408,3.1592 h -2.8613 z m -2.8281,-6.6336 v 0 4.1454 h 2.9024 c 0.5752,0 1.0644,-0.2013 1.4678,-0.6055 0.4034,-0.4034 0.6055,-0.8927 0.6055,-1.4667 0,-0.5754 -0.2021,-1.0647 -0.6055,-1.4677 -0.4034,-0.4045 -0.8926,-0.6055 -1.4678,-0.6055 z"
         style="fill:#40304c;fill-rule:evenodd"
         id="path12" />
      <path
         d="m -1719.2117,515.8636 c 1.1327,1.1338 1.7002,2.5021 1.7002,4.1045 0,1.6036 -0.5675,2.9719 -1.7002,4.1046 -1.1339,1.1339 -2.5019,1.7002 -4.1046,1.7002 -1.6033,0 -2.9716,-0.5663 -4.1043,-1.7002 -1.1339,-1.1327 -1.7002,-2.501 -1.7002,-4.1046 0,-1.6024 0.5663,-2.9707 1.7002,-4.1045 1.1327,-1.1328 2.501,-1.7 4.1043,-1.7 1.6027,0 2.9707,0.5672 4.1046,1.7 z m -4.1046,0.7883 v 0 c -0.9179,0 -1.7002,0.3231 -2.3465,0.9697 -0.6466,0.6463 -0.9709,1.4295 -0.9709,2.3465 0,0.9182 0.3243,1.7002 0.9709,2.3468 0.6463,0.6463 1.4286,0.9706 2.3465,0.9706 0.917,0 1.7002,-0.3243 2.3468,-0.9706 0.6466,-0.6466 0.9697,-1.4286 0.9697,-2.3468 0,-0.917 -0.3231,-1.7002 -0.9697,-2.3465 -0.6466,-0.6466 -1.4298,-0.9697 -2.3468,-0.9697 z"
         style="fill:#40304c;fill-rule:evenodd"
         id="path14" />
      <path
         d="m -1701.9969,514.1636 v 2.4883 h -7.4628 v 2.0732 h 5.8048 v 2.4872 h -5.8048 v 4.5606 h -2.4874 v -11.6093 z"
         style="fill:#40304c;fill-rule:evenodd"
         id="path16" />
      <path
         d="m -1693.9451,514.1636 v 11.6093 h -2.4874 v -11.6093 z"
         style="fill:#40304c;fill-rule:evenodd"
         id="path18" />
      <path
         d="m -1681.7468,525.7729 h -6.6339 v -2.4874 h 6.6339 c 0.2265,0 0.4218,-0.0819 0.5848,-0.2452 0.1621,-0.163 0.2443,-0.3572 0.2443,-0.5839 0,-0.2274 -0.082,-0.4218 -0.2443,-0.5848 -0.163,-0.1633 -0.3583,-0.2452 -0.5848,-0.2452 h -2.9024 c -1.0284,0 -1.9071,-0.3643 -2.6368,-1.0939 -0.7293,-0.7305 -1.0947,-1.6092 -1.0947,-2.6376 0,-1.0282 0.3654,-1.9072 1.0947,-2.6365 0.7297,-0.7297 1.6084,-1.0948 2.6368,-1.0948 h 6.2186 v 2.4883 h -6.2186 c -0.3427,0 -0.6358,0.121 -0.879,0.3642 -0.2432,0.2432 -0.3651,0.5361 -0.3651,0.8788 0,0.343 0.1219,0.6358 0.3651,0.879 0.2432,0.2441 0.5363,0.3651 0.879,0.3651 h 2.9024 c 0.9179,0 1.7002,0.3234 2.3465,0.9709 0.6466,0.6463 0.9697,1.4286 0.9697,2.3465 0,0.917 -0.3231,1.6993 -0.9697,2.3468 -0.6463,0.6466 -1.4286,0.9697 -2.3465,0.9697 z"
         style="fill:#40304c;fill-rule:evenodd"
         id="path20" />
      <path
         d="m -1670.3776,514.1636 v 11.6093 h -2.4874 v -11.6093 z"
         style="fill:#40304c;fill-rule:evenodd"
         id="path22" />
      <path
         d="m -1654.9041,515.8636 c 1.1327,1.1338 1.7002,2.5021 1.7002,4.1045 0,1.6036 -0.5675,2.9719 -1.7002,4.1046 -1.1339,1.1339 -2.5019,1.7002 -4.1046,1.7002 -1.6033,0 -2.9716,-0.5663 -4.1043,-1.7002 -1.1338,-1.1327 -1.7002,-2.501 -1.7002,-4.1046 0,-1.6024 0.5664,-2.9707 1.7002,-4.1045 1.1327,-1.1328 2.501,-1.7 4.1043,-1.7 1.6027,0 2.9707,0.5672 4.1046,1.7 z m -4.1046,0.7883 v 0 c -0.9179,0 -1.7002,0.3231 -2.3465,0.9697 -0.6466,0.6463 -0.9706,1.4295 -0.9706,2.3465 0,0.9182 0.324,1.7002 0.9706,2.3468 0.6463,0.6463 1.4286,0.9706 2.3465,0.9706 0.917,0 1.7002,-0.3243 2.3468,-0.9706 0.6466,-0.6466 0.9697,-1.4286 0.9697,-2.3468 0,-0.917 -0.3231,-1.7002 -0.9697,-2.3465 -0.6466,-0.6466 -1.4298,-0.9697 -2.3468,-0.9697 z"
         style="fill:#40304c;fill-rule:evenodd"
         id="path24" />
      <path
         d="m -1637.5895,514.1636 v 2.4883 h -4.1466 v 9.121 h -2.4874 v -9.121 h -4.1465 v -2.4883 z"
         style="fill:#40304c;fill-rule:evenodd"
         id="path26" />
      <path
         d="m -1622.075,514.1636 v 2.4883 h -7.463 v 2.0732 h 5.8048 v 2.4872 h -5.8048 v 2.0732 h 7.463 v 2.4874 h -9.9501 v -11.6093 z"
         style="fill:#40304c;fill-rule:evenodd"
         id="path28" />
      <path
         d="m -1611.195,523.2855 h -2.8281 v 2.4874 h -2.4875 v -11.6093 h 5.3896 c 1.2608,0 2.336,0.4453 3.2258,1.3349 0.8903,0.8906 1.3348,1.9658 1.3348,3.2266 0,1.2598 -0.4445,2.3349 -1.3348,3.2256 -0.2599,0.2596 -0.5332,0.4804 -0.8204,0.663 l 1.8409,3.1592 h -2.8613 z m -2.8281,-6.6336 v 0 4.1454 h 2.9021 c 0.5754,0 1.0647,-0.2013 1.468,-0.6055 0.4031,-0.4034 0.6055,-0.8927 0.6055,-1.4667 0,-0.5754 -0.2024,-1.0647 -0.6055,-1.4677 -0.4033,-0.4045 -0.8926,-0.6055 -1.468,-0.6055 z"
         style="fill:#40304c;fill-rule:evenodd"
         id="path30" />
      <path
         d="m -1598.5086,523.2855 v 2.4874 h -2.4874 v -6.6339 c 0,-1.3759 0.4856,-2.5498 1.4551,-3.5195 0.9708,-0.9706 2.1438,-1.4559 3.5206,-1.4559 1.3759,0 2.5497,0.4853 3.5195,1.4559 0.9708,0.9697 1.455,2.1436 1.455,3.5195 v 6.6339 h -2.4871 v -2.4874 z m 4.9757,-2.4882 v 0 -1.6583 c 0,-0.6854 -0.2432,-1.2713 -0.7297,-1.7578 -0.4861,-0.4864 -1.072,-0.7293 -1.7577,-0.7293 -0.6854,0 -1.2716,0.2429 -1.7578,0.7293 -0.4873,0.4865 -0.7305,1.0724 -0.7305,1.7578 v 1.6583 z"
         style="fill:#40304c;fill-rule:evenodd"
         id="path32" />
      <path
         d="m -1582.9929,523.2855 v 2.4874 h -2.4874 v -11.6093 h 5.3896 c 1.2608,0 2.336,0.4453 3.2258,1.3349 0.8903,0.8906 1.3348,1.9658 1.3348,3.2266 0,1.2598 -0.4445,2.3349 -1.3348,3.2256 -0.8898,0.8895 -1.965,1.3348 -3.2258,1.3348 z m 0,-6.6336 v 0 4.1454 h 2.9022 c 0.5754,0 1.0647,-0.2013 1.468,-0.6055 0.4031,-0.4034 0.6052,-0.8927 0.6052,-1.4667 0,-0.5754 -0.2021,-1.0647 -0.6052,-1.4677 -0.4033,-0.4045 -0.8926,-0.6055 -1.468,-0.6055 z"
         style="fill:#40304c;fill-rule:evenodd"
         id="path34" />
      <path
         d="m -1567.4783,514.1636 v 11.6093 h -2.4874 v -11.6093 z"
         style="fill:#40304c;fill-rule:evenodd"
         id="path36" />
      <path
         d="m -1559.4265,523.2855 v 2.4874 h -2.4874 v -6.6339 c 0,-1.3759 0.4853,-2.5498 1.4551,-3.5195 0.9708,-0.9706 2.1435,-1.4559 3.5206,-1.4559 1.3759,0 2.5498,0.4853 3.5195,1.4559 0.9706,0.9697 1.455,2.1436 1.455,3.5195 v 6.6339 h -2.4871 v -2.4874 z m 4.9757,-2.4882 v 0 -1.6583 c 0,-0.6854 -0.2432,-1.2713 -0.7296,-1.7578 -0.4865,-0.4864 -1.0724,-0.7293 -1.7578,-0.7293 -0.6857,0 -1.2716,0.2429 -1.7578,0.7293 -0.4875,0.4865 -0.7305,1.0724 -0.7305,1.7578 v 1.6583 z"
         style="fill:#40304c;fill-rule:evenodd"
         id="path38" />
    </g>
    <g
       id="Layer1002">
      <g
         id="Layer1003">
        <path
           d="m -1639.8916,342.0479 c -2.4142,0.049 -5.6358,0.3634 -9.2678,1.4477 -2.9081,0.8676 -5.2957,1.995 -7.1243,3.0242 -0.038,-0.7117 -0.1245,-1.7543 -0.3422,-2.9956 -0.4504,-2.5691 -1.1449,-6.5322 -4.1048,-9.7614 -0.62,-0.6763 -2.7108,-2.8993 -6.245,-3.92 -5.6299,-1.6263 -10.3221,1.127 -11.272,1.7161 -3.2913,2.0406 -4.784,4.8415 -5.1355,5.5363 -1.3972,2.7618 -1.4585,5.2574 -1.4738,6.4009 -0.1102,8.193 6.198,14.4196 8.358,16.5376 0.9493,0.9309 1.7592,1.6115 2.156,1.9372 -1.8581,2.2578 -3.7434,4.6503 -5.637,7.1805 -1.7056,2.2787 -3.3054,4.5184 -4.8055,6.707 -0.3739,-0.2537 -0.9315,-0.6412 -1.5891,-1.1367 0,-3e-4 -3.4575,-2.6059 -6.2142,-5.8274 -6.7405,-7.8781 -8.3817,-17.674 -8.3817,-17.6743 -0.2537,-1.5146 -1.095,-7.1448 0.4255,-13.8683 0.4212,-1.8617 1.3271,-5.7169 3.9529,-10.0091 0.3889,-0.6364 0.7364,-1.1506 0.9873,-1.5126 1.6262,-2.3425 4.816,-6.2424 10.0278,-9.1851 1.0253,-0.5788 3.5901,-1.951 7.1759,-2.9092 6.2158,-1.6611 11.325,-0.966 12.676,-0.7562 10.5049,1.6302 16.8364,8.5195 18.5366,10.5142 1.021,1.1974 3.1955,3.7905 4.7911,7.7125 1.4644,3.5998 1.9967,7.2267 2.3128,9.3796 0.089,0.6049 0.1517,1.1103 0.193,1.4621 z"
           style="fill:#f07d28;fill-rule:evenodd"
           id="path41" />
        <path
           d="m -1667.0435,389.6453 c 3.5765,-4.8382 7.0886,-9.5885 10.624,-14.3708 1.6982,1.5899 3.3947,2.9744 4.8396,4.585 2.1396,2.3854 3.643,4.481 4.4815,5.758 2.8265,4.305 4.2509,8.0839 4.771,9.5568 0.7719,2.186 1.997,5.737 2.2814,10.5797 0.2253,3.8387 -0.2492,6.7419 -0.3785,7.4914 -0.3478,2.0166 -1.2257,6.8108 -4.5334,11.6161 -4.1627,6.0474 -9.7679,8.6168 -12.674,9.9045 -8.2094,3.6375 -15.4148,2.8336 -16.8171,2.6587 -1.2818,-0.1602 -4.1006,-0.5432 -7.4205,-1.8958 -2.3641,-0.9635 -4.6599,-2.0041 -6.6549,-3.5598 -1.8017,-1.4048 -3.4937,-2.9733 -5.0959,-4.6052 -3.2629,-3.3236 -4.756,-6.893 -5.5669,-8.8197 -1.6697,-3.9659 -2.2184,-7.5189 -2.4027,-9.9419 2.0633,0.2202 5.0009,0.3092 8.4305,-0.3396 3.5153,-0.665 6.2725,-1.8641 8.1309,-2.8469 0.239,1.3604 0.4215,3.0025 0.832,4.5854 0.2123,0.8186 0.4822,1.6092 0.811,2.3745 0,3e-4 0.8464,1.9786 2.0888,3.5626 1.4874,1.8961 5.076,5.0392 10.101,5.2257 3.2542,0.1208 5.6829,-1.0514 6.899,-1.6563 1.0465,-0.5204 3.13,-1.5848 4.9484,-3.8704 0.5859,-0.7364 2.7423,-3.6085 2.9251,-7.8004 0.144,-3.2995 -0.9811,-5.6497 -2.391,-8.416 -1.5469,-3.0362 -3.7245,-5.5123 -6.0316,-7.9203 -0.6653,-0.6942 -1.474,-1.2512 -2.1977,-1.8553 z"
           style="fill:#40304c;fill-rule:evenodd"
           id="path43" />
        <path
           d="m -1703.7643,344.2147 c -0.082,5.8949 1.0091,11.4891 3.3032,16.581 -0.4567,-0.034 -8.3985,-0.4879 -13.0156,5.925 -3.8894,5.4019 -2.9509,12.2485 -0.3027,16.3802 1.8096,2.8234 4.3333,4.248 4.714,4.4572 2.7918,1.535 5.4014,1.5857 6.6175,1.5948 8.8786,0.0666 16.0562,-7.8126 18.25,-10.2209 0.5153,-0.5655 0.2752,-0.3356 7.507,-9.974 3.4849,-4.6445 5.2276,-6.9669 5.3722,-7.1421 2.7383,-3.3197 10.2024,-12.1377 22.6148,-15.8585 1.7436,-0.5227 4.5196,-1.3354 8.2919,-1.521 2.3108,-0.1137 10.614,-0.4059 18.6449,4.8841 0.9258,0.6097 4.0734,2.7595 7.1113,6.5857 3.2247,4.0615 4.6105,7.8511 4.9773,8.9053 1.8196,5.2336 1.6566,9.6024 1.5503,11.8625 -0.097,2.0758 -0.3135,5.953 -2.1799,10.5329 -0.5828,1.4301 -3.0152,7.0728 -8.9084,11.937 -4.875,4.0238 -9.726,5.54 -11.7678,6.082 -2.6909,0.7144 -5.0289,0.9377 -6.7141,0.9992 -0.6296,-5.8317 -2.0894,-11.4667 -4.5777,-16.7553 2.1379,-0.3231 4.1142,-0.4532 5.9984,-0.9405 2.4786,-0.6412 5.5837,-1.6744 8.0856,-4.54 3.2071,-3.6737 3.2689,-8.0949 3.2678,-9.3552 0,-1.3711 0,-5.5082 -3.0354,-9.0266 -3.8018,-4.4138 -9.4379,-4.4535 -11.1679,-4.3673 -2.992,0.1488 -5.1191,1.2115 -7.1419,2.249 -4.9691,2.5483 -8.0473,5.9805 -10.7521,9.2273 -5.5055,6.6084 -8.0918,10.8003 -10.3263,13.8016 -2.2111,2.9702 -13.3387,17.917 -30.2494,19.5565 -10.0091,0.9703 -17.96,-3.1172 -19.4936,-3.9356 -5.5837,-2.9801 -8.7732,-6.7482 -9.4184,-7.5268 -1.1406,-1.3768 -3.7176,-4.7433 -5.3764,-9.8042 -0.6265,-1.9117 -1.7887,-6.0999 -1.4443,-11.5141 0.1381,-2.1702 0.6166,-6.0857 2.5691,-10.5335 2.7212,-6.1988 6.7461,-9.8802 8.3369,-11.2247 1.2734,-1.076 4.896,-3.958 10.4434,-5.7781 3.278,-1.0755 6.1614,-1.4304 8.2163,-1.5429 z"
           style="fill:#40304c;fill-rule:evenodd"
           id="path45" />
      </g>
      <g
         id="Layer1004">
        <g
           id="Layer1005">
          <path
             d="m -1734.7079,498.2094 v 7.0126 h -7.0126 v -32.7237 h 15.1934 c 3.5526,0 6.584,1.254 9.0927,3.7627 2.5089,2.509 3.7627,5.54 3.7627,9.093 0,3.5526 -1.2538,6.584 -3.7627,9.0927 -2.5087,2.5086 -5.5401,3.7627 -9.0927,3.7627 z m 0,-18.6993 v 0 11.6875 h 8.1808 c 1.62,0 2.9999,-0.5692 4.1377,-1.7059 1.1367,-1.1378 1.7059,-2.5166 1.7059,-4.1377 0,-1.6203 -0.5692,-2.9999 -1.7059,-4.1377 -1.1378,-1.1367 -2.5177,-1.7062 -4.1377,-1.7062 z"
             style="fill:#40304c;fill-rule:evenodd"
             id="path48" />
          <path
             d="m -1703.8981,472.4983 v 32.7237 h -7.0127 v -32.7237 z"
             style="fill:#40304c;fill-rule:evenodd"
             id="path50" />
          <path
             d="m -1701.1383,472.4983 h 7.0126 v 25.7111 h 21.0362 v 7.0126 h -28.0488 z"
             style="fill:#40304c;fill-rule:evenodd"
             id="path52" />
          <path
             d="m -1663.3171,498.2094 v 7.0126 h -7.0129 v -18.6993 c 0,-3.8806 1.3672,-7.1872 4.1026,-9.9227 2.7346,-2.7343 6.042,-4.1017 9.9221,-4.1017 3.8798,0 7.1873,1.3674 9.9227,4.1017 2.7343,2.7355 4.1017,6.0421 4.1017,9.9227 v 18.6993 h -7.0118 v -7.0126 z m 14.0244,-7.0118 v 0 -4.6749 c 0,-1.9324 -0.6865,-3.5838 -2.0568,-4.9558 -1.3719,-1.3711 -3.0234,-2.0568 -4.9558,-2.0568 -1.9329,0 -3.5841,0.6857 -4.9552,2.0568 -1.3712,1.372 -2.0566,3.0234 -2.0566,4.9558 v 4.6749 z"
             style="fill:#40304c;fill-rule:evenodd"
             id="path54" />
          <path
             d="m -1610.9334,472.4983 v 7.0118 h -11.6875 v 25.7119 h -7.0118 v -25.7119 h -11.6875 v -7.0118 z"
             style="fill:#40304c;fill-rule:evenodd"
             id="path56" />
          <path
             d="m -1580.1248,472.4983 v 7.0118 h -21.0361 v 5.8439 h 16.3612 v 7.0126 h -16.3612 v 5.8428 h 21.0361 v 7.0126 h -28.0488 v -32.7237 z"
             style="fill:#40304c;fill-rule:evenodd"
             id="path58" />
          <path
             d="m -1558.6648,505.222 h -18.6993 v -7.0126 h 18.6993 c 0.6387,0 1.1886,-0.2293 1.6484,-0.6894 0.4589,-0.4589 0.6896,-1.0089 0.6896,-1.6475 0,-0.6386 -0.2307,-1.1886 -0.6896,-1.6483 -0.4598,-0.4593 -1.0097,-0.6897 -1.6484,-0.6897 h -8.1808 c -2.8984,0 -5.3759,-1.0281 -7.4335,-3.085 -2.0566,-2.0565 -3.085,-4.5351 -3.085,-7.4335 0,-2.8985 1.0284,-5.3759 3.085,-7.4325 2.0576,-2.0568 4.5351,-3.0852 7.4335,-3.0852 h 17.5303 v 7.0118 h -17.5303 c -0.9666,0 -1.792,0.343 -2.4775,1.0284 -0.6865,0.6865 -1.0281,1.5117 -1.0281,2.4775 0,0.9669 0.3416,1.7932 1.0281,2.4786 0.6855,0.6854 1.5109,1.0281 2.4775,1.0281 h 8.1808 c 2.5869,0 4.792,0.9113 6.6152,2.7346 1.8233,1.8232 2.7343,4.0283 2.7343,6.6152 0,2.5869 -0.911,4.792 -2.7343,6.6152 -1.8232,1.8233 -4.0283,2.7343 -6.6152,2.7343 z"
             style="fill:#40304c;fill-rule:evenodd"
             id="path60" />
        </g>
        <g
           id="Layer1006">
          <path
             d="m -1775.7,505.222 h -18.6993 v -7.0126 h 18.6993 c 0.6386,0 1.1886,-0.2293 1.6486,-0.6894 0.459,-0.4589 0.6894,-1.0089 0.6894,-1.6475 0,-0.6386 -0.2304,-1.1886 -0.6894,-1.6483 -0.46,-0.4593 -1.01,-0.6897 -1.6486,-0.6897 h -8.1805 c -2.8987,0 -5.3762,-1.0281 -7.4336,-3.085 -2.0568,-2.0565 -3.0852,-4.5351 -3.0852,-7.4335 0,-2.8985 1.0284,-5.3759 3.0852,-7.4325 2.0574,-2.0568 4.5349,-3.0852 7.4336,-3.0852 h 17.53 v 7.0118 h -17.53 c -0.9669,0 -1.7921,0.343 -2.4778,1.0284 -0.6865,0.6865 -1.0281,1.5117 -1.0281,2.4775 0,0.9669 0.3416,1.7932 1.0281,2.4786 0.6857,0.6854 1.5109,1.0281 2.4778,1.0281 h 8.1805 c 2.5869,0 4.792,0.9113 6.6152,2.7346 1.8233,1.8232 2.7343,4.0283 2.7343,6.6152 0,2.5869 -0.911,4.792 -2.7343,6.6152 -1.8232,1.8233 -4.0283,2.7343 -6.6152,2.7343 z"
             style="fill:#f07d28;fill-rule:evenodd"
             id="path63" />
        </g>
        <path
           d="m -1748.4557,490.1026 h -11.2427 v -5.7818 h 11.2427 z"
           style="fill:#f07d28;fill-rule:evenodd"
           id="path66" />
      </g>
    </g>
  </g>
</svg>
